<svg width="25" height="24" viewBox="0 0 25 24" fill="none" xmlns="http://www.w3.org/2000/svg">
<path d="M16.2071 8.29289C16.5976 8.68342 16.5976 9.31658 16.2071 9.70711L13.9142 12L16.2071 14.2929C16.5976 14.6834 16.5976 15.3166 16.2071 15.7071C15.8166 16.0976 15.1834 16.0976 14.7929 15.7071L12.5 13.4142L10.2071 15.7071C9.81658 16.0976 9.18342 16.0976 8.79289 15.7071C8.40237 15.3166 8.40237 14.6834 8.79289 14.2929L11.0858 12L8.79289 9.70711C8.40237 9.31658 8.40237 8.68342 8.79289 8.29289C9.18342 7.90237 9.81658 7.90237 10.2071 8.29289L12.5 10.5858L14.7929 8.29289C15.1834 7.90237 15.8166 7.90237 16.2071 8.29289Z" fill="white" fill-opacity="0.85"/>
<path fill-rule="evenodd" clip-rule="evenodd" d="M1.5 12C1.5 5.92487 6.42487 1 12.5 1C18.5751 1 23.5 5.92487 23.5 12C23.5 18.0751 18.5751 23 12.5 23C6.42487 23 1.5 18.0751 1.5 12ZM12.5 3C7.52944 3 3.5 7.02944 3.5 12C3.5 16.9706 7.52944 21 12.5 21C17.4706 21 21.5 16.9706 21.5 12C21.5 7.02944 17.4706 3 12.5 3Z" fill="white" fill-opacity="0.85"/>
</svg>
