<svg width="28" height="28" viewBox="0 0 28 28" fill="none" xmlns="http://www.w3.org/2000/svg">
<path d="M13.9997 8.16665C13.6903 8.16665 13.3935 8.28956 13.1747 8.50836C12.9559 8.72715 12.833 9.02389 12.833 9.33331V14C12.833 14.3094 12.9559 14.6061 13.1747 14.8249C13.3935 15.0437 13.6903 15.1666 13.9997 15.1666C14.3091 15.1666 14.6058 15.0437 14.8246 14.8249C15.0434 14.6061 15.1663 14.3094 15.1663 14V9.33331C15.1663 9.02389 15.0434 8.72715 14.8246 8.50836C14.6058 8.28956 14.3091 8.16665 13.9997 8.16665ZM15.073 18.2233C15.0475 18.149 15.0122 18.0783 14.968 18.0133L14.828 17.8383C14.664 17.6764 14.4556 17.5668 14.2293 17.5232C14.003 17.4796 13.7688 17.504 13.5563 17.5933C13.415 17.6524 13.2847 17.7353 13.1713 17.8383C13.0632 17.9473 12.9777 18.0766 12.9196 18.2188C12.8616 18.3609 12.8321 18.5131 12.833 18.6666C12.8349 18.8191 12.8666 18.9697 12.9263 19.11C12.9787 19.2548 13.0623 19.3862 13.1712 19.4951C13.2801 19.604 13.4116 19.6876 13.5563 19.74C13.696 19.8017 13.847 19.8336 13.9997 19.8336C14.1524 19.8336 14.3034 19.8017 14.443 19.74C14.5878 19.6876 14.7193 19.604 14.8281 19.4951C14.937 19.3862 15.0206 19.2548 15.073 19.11C15.1328 18.9697 15.1645 18.8191 15.1663 18.6666C15.1721 18.589 15.1721 18.511 15.1663 18.4333C15.1463 18.3589 15.1148 18.2881 15.073 18.2233V18.2233ZM13.9997 2.33331C11.6922 2.33331 9.4366 3.01755 7.51803 4.2995C5.59945 5.58145 4.10411 7.40353 3.22109 9.53534C2.33806 11.6671 2.10702 14.0129 2.55718 16.276C3.00735 18.5391 4.11849 20.6179 5.7501 22.2496C7.38171 23.8812 9.46051 24.9923 11.7236 25.4425C13.9867 25.8926 16.3325 25.6616 18.4643 24.7786C20.5961 23.8956 22.4182 22.4002 23.7002 20.4816C24.9821 18.5631 25.6663 16.3074 25.6663 14C25.6663 12.4679 25.3646 10.9508 24.7783 9.53534C24.192 8.11987 23.3326 6.83375 22.2493 5.7504C21.1659 4.66705 19.8798 3.80769 18.4643 3.22139C17.0489 2.63508 15.5318 2.33331 13.9997 2.33331V2.33331ZM13.9997 23.3333C12.1537 23.3333 10.3492 22.7859 8.81436 21.7604C7.2795 20.7348 6.08322 19.2771 5.3768 17.5717C4.67039 15.8662 4.48556 13.9896 4.84568 12.1791C5.20581 10.3686 6.09473 8.70561 7.40002 7.40032C8.70531 6.09503 10.3683 5.20611 12.1788 4.84598C13.9893 4.48586 15.8659 4.67069 17.5714 5.3771C19.2768 6.08352 20.7345 7.2798 21.7601 8.81466C22.7856 10.3495 23.333 12.154 23.333 14C23.333 16.4753 22.3497 18.8493 20.5993 20.5996C18.849 22.35 16.475 23.3333 13.9997 23.3333V23.3333Z" fill="#111111"/>
</svg>
